<?xml version="1.0" standalone="no"?>
<!DOCTYPE svg PUBLIC "-//W3C//DTD SVG 20010904//EN"
 "http://www.w3.org/TR/2001/REC-SVG-20010904/DTD/svg10.dtd">
<svg version="1.0" xmlns="http://www.w3.org/2000/svg"
 width="91.000000pt" height="91.000000pt" viewBox="0 0 91.000000 91.000000"
 preserveAspectRatio="xMidYMid meet">

<g transform="translate(0.000000,91.000000) scale(0.100000,-0.100000)"
fill="#000000" stroke="none">
<path d="M245 904 c-105 -27 -157 -70 -175 -145 -18 -73 -5 -140 45 -249 42
-91 45 -102 54 -225 6 -72 14 -144 19 -161 32 -104 95 -151 140 -106 15 15 20
41 25 118 7 102 18 156 43 210 16 34 55 57 79 47 40 -15 85 -162 85 -276 0
-79 9 -102 46 -111 46 -12 90 32 116 118 5 17 13 89 18 159 9 123 11 133 54
225 68 148 71 249 9 323 -56 66 -174 92 -286 64 -52 -13 -74 -14 -98 -6 -37
13 -146 22 -174 15z m229 -88 c41 -21 79 -35 85 -31 19 11 12 34 -16 49 -25
13 -26 15 -10 22 30 11 160 -2 195 -20 56 -29 74 -69 69 -156 -3 -62 -10 -87
-40 -145 -44 -87 -57 -133 -57 -210 0 -134 -42 -280 -79 -273 -13 3 -17 22
-22 103 -10 179 -64 285 -144 285 -83 0 -134 -100 -144 -285 -5 -83 -9 -100
-23 -103 -11 -2 -23 9 -36 35 -27 54 -32 82 -41 219 -8 116 -10 126 -55 221
-39 85 -46 108 -46 162 0 127 61 175 213 168 66 -3 88 -9 151 -41z"/>
</g>
</svg>